<svg fill="#25b8c4" xmlns="http://www.w3.org/2000/svg" viewBox="0 0 31 76.2" width="31" height="76.2" ><path d="M29.3 50.4l-.6-2.4V37.4c.7-1.1 2.3-4.1 2.3-6.9 0-4.1-2.5-7.1-4.4-9.3l-.1-.2c-1.1-1.3-3.1-3.3-5.5-5.7L15.7 10a32.5 32.5 0 0 1-5.3-7.9l.4-.4c.4-.4.4-1 0-1.4a1 1 0 0 0-1.4 0L9 .7c-2 2-6.2 6.1-7 11.8-.5 3.4-.4 6.3-.4 9.4l-.1 6.6a52 52 0 0 1-.8 6C.3 36.6 0 38.3.1 41c.1 4.5.7 8.2 2.8 11.5 1 1.5 1.8 2.3 2.6 3l.7.7c.2.2.5.3.7.3.3 0 .5-.1.7-.3.4-.4.4-1 0-1.4l-.9-.8c.5-.8 1.7-2.4 2.9-3.4l.6-.5a9.7 9.7 0 0 0 3.6-4.5c.6-1.8 1.1-4 1.3-5.2l.1-.6c.1-.2.1-.4.3-.4l.1.1v8.4l-.8 2.6c-.7.1-1.3.8-1.3 1.5v1.9c0 .9.7 1.5 1.5 1.5h3.5v1.9a2.7 2.7 0 0 0-2.3 2.6h-.3c-1 0-1.8.8-1.8 1.8V63c0 .7.4 1.2.9 1.6v6l1.1 4.6c.2.7.8 1.1 1.5 1.1h9.1c.7 0 1.3-.5 1.5-1.2l1.2-4.4v-6.1c.5-.3.9-.9.9-1.6v-1.2c0-1-.8-1.8-1.8-1.8H28c0-1.3-1-2.4-2.2-2.6v-1.9h3.4c.9 0 1.5-.7 1.5-1.5v-2c.1-.9-.6-1.6-1.4-1.6zM26.9 49l.3 1.4H17l.4-1.4h9.5zM15.6 37.4c-1.1 0-2 .8-2.3 1.9l-.1.7c-.2 1.1-.7 3.2-1.3 4.9-.6 1.6-1.5 2.4-3 3.6l-.6.5c-1.2 1-2.4 2.5-3 3.5l-.8-1.2C2.9 48.8 2.2 45.9 2 40.8c-.1-2.5.2-4.2.6-6.1.3-1.6.6-3.5.8-6.2.2-2.4.1-4.6.1-6.8 0-3-.1-5.8.4-9.1a16 16 0 0 1 4.9-9c1 1.9 2.8 5.1 5.4 7.7l5.4 5.4 5.4 5.5.2.2c1.7 2.1 3.9 4.6 3.9 8 0 2.4-1.6 5.1-2 5.8a2 2 0 0 0-.3 1.1V47h-9v-7.8c-.1-1.1-1.5-1.8-2.2-1.8zm11.9 32.8l-1 4h-8.4l-.9-3.8v-5.6h10.4v5.4zm.9-7.4H16.3v-.9H28.5v.9zm-2.3-2.9h-7.7c0-.3.3-.6.6-.6h6.4c.4 0 .7.3.7.6zm-2.2-2.6h-3.2v-1.8h3.2v1.8zm4.9-3.9H15.7v-1h13.2v1z"/><path d="M13.8 16.2c-2.6 0-4.6 2.9-4.6 6.6s2 6.6 4.6 6.6 4.6-2.9 4.6-6.6-2.1-6.6-4.6-6.6zm0 11.1c-1.2 0-2.6-1.9-2.6-4.6s1.4-4.6 2.6-4.6c1.2 0 2.6 1.9 2.6 4.6s-1.4 4.6-2.6 4.6z"/></svg>